<svg width="91" height="76" viewBox="0 0 91 76" fill="none" xmlns="http://www.w3.org/2000/svg">
<path d="M67.6 56.3766C69.2 54.7766 68.9 51.6766 66.6 47.3766C65.8 45.8766 64.8 44.3766 63.6 42.7766C69.1 40.9766 76.4 39.6766 84.9 40.7766C85.5 40.8766 86 40.4766 86 39.8766C86.1 39.2766 85.7 38.7766 85.1 38.7766C75.8 37.6766 68.1 39.0766 62.3 41.0766C60.7 39.0766 58.9 37.0766 57 35.0766C53.8 31.8766 50.5 29.1766 47.4 27.1766C47.6 21.2766 47.2 16.0766 45.7 13.5766C44.1 10.8766 42.2 10.4766 40.9 10.6766C38 11.1766 35.7 14.7766 34.9 18.0766C34.8 18.5766 35.1 19.1766 35.7 19.2766C36.2 19.3766 36.8 19.0766 36.9 18.4766C37.6 15.4766 39.5 12.8766 41.2 12.5766C42.2 12.4766 43.1 13.0766 44 14.4766C44.7 15.6766 45.6 18.6766 45.5 25.8766C42.7 24.2766 40.3 23.3766 38.4 23.3766C37.2 23.3766 36.3 23.6766 35.7 24.3766C35.4 24.6766 35.2 25.0766 35 25.4766H34.9C34.9 25.4766 22.8 57.1766 21.2 61.3766L21 61.7766C17.9 69.8766 16.8 73.6766 18.4 75.0766C18.4 75.0766 18.5 75.0766 18.5 75.1766C18.9 75.4766 19.5 75.6766 20.3 75.6766C22.3 75.6766 25.9 74.5766 31.9 72.0766C35.7 70.4766 65.5 57.4766 65.8 57.3766L65.9 57.2766C66.6 57.0766 67.2 56.8766 67.6 56.3766ZM64.8 48.3766C66.8 52.1766 66.8 54.2766 66.2 54.9766C65.9 55.2766 65.5 55.3766 64.9 55.3766C62.1 55.3766 57.2 52.6766 52.2 48.3766C53.5 47.3766 56.8 45.2766 61.7 43.4766C62.9 45.1766 64 46.8766 64.8 48.3766ZM55.6 36.4766C57.4 38.2766 58.9 39.9766 60.4 41.7766C55.1 43.8766 51.7 46.1766 50.7 47.0766C49.7 46.1766 48.8 45.2766 47.8 44.3766C47.2 43.7766 46.7 43.1766 46.1 42.5766C46.7 38.3766 47.1 33.8766 47.4 29.4766C49.8 31.1766 52.6 33.4766 55.6 36.4766ZM38.3 25.3766C39.8 25.3766 42.3 26.2766 45.3 28.1766C45.2 31.4766 44.8 35.5766 44.2 40.5766C37.8 33.1766 35.6 27.2766 37 25.7766C37.3 25.5766 37.7 25.3766 38.3 25.3766ZM31.1 70.1766C22.1 73.8766 20.2 73.7766 19.8 73.5766L19.7 73.4766C19.2 72.1766 21.8 65.3766 22.9 62.4766L23.1 62.0766C24.3 58.7766 32 38.7766 35.2 30.1766C36.5 34.0766 40 39.0766 44.1 43.5766C44.8 44.3766 45.5 45.0766 46.2 45.7766C51.8 51.3766 57.6 55.3766 61.9 56.7766C54.3 60.1766 34.2 68.9766 31.1 70.1766ZM67.2 27.8766C66.6 25.0766 65.6 20.8766 69.3 18.6766C72.1 16.9766 74.1 19.7766 75.6 21.7766C76.5 22.9766 77.4 24.2766 78.2 24.3766C78.3 24.3766 78.6 24.3766 79 24.0766C80.4 22.8766 79.6 21.3766 78.2 18.8766C77.1 17.0766 76 15.1766 77 13.5766C78.3 11.6766 80.3 12.8766 81.5 13.6766C83.2 14.7766 84.5 15.3766 85.8 14.3766C86.7 13.6766 87.2 12.8766 87.3 11.6766C87.6 9.27664 86.3 6.37664 85 4.67664C84.7 4.27664 84.7 3.57664 85.2 3.27664C85.6 2.97664 86.3 2.97664 86.6 3.47664C88.2 5.57664 89.7 9.07664 89.3 11.9766C89.1 13.6766 88.3 14.9766 87 15.9766C84.5 17.8766 82 16.3766 80.4 15.3766C78.9 14.4766 78.7 14.4766 78.6 14.6766C78.3 15.1766 79.1 16.5766 79.8 17.7766C81.2 20.0766 83.1 23.1766 80.2 25.5766C79.4 26.1766 78.7 26.4766 77.8 26.3766C76.2 26.1766 75 24.5766 73.8 22.9766C72 20.4766 71.2 19.7766 70.1 20.3766C67.9 21.6766 68.2 24.1766 69 27.3766C69.2 28.3766 69.4 29.2766 69.4 29.9766C69.4 30.5766 68.9 30.9766 68.4 30.9766C67.9 30.9766 67.4 30.4766 67.4 29.9766C67.6 29.5766 67.4 28.7766 67.2 27.8766ZM22.1 22.2766C19 22.8766 15.4 23.5766 14 20.9766C13.5 19.9766 13.6 19.2766 13.8 18.7766C14.4 17.1766 16.7 16.3766 18.8 15.6766C19.9 15.2766 21.9 14.6766 22 14.1766C21.9 12.9766 19.7 11.6766 17.7 10.5766C16.6 9.87664 15.4 9.17664 14.5 8.47664C13.3 7.47664 13.1 6.37664 13.3 5.57664C13.7 2.67664 18.1 0.676641 19.5 0.0766407C20 -0.123359 20.6 0.0766407 20.8 0.576641C21 1.07664 20.8 1.67664 20.3 1.87664C17.5 3.07664 15.5 4.67664 15.3 5.77664C15.3 5.87664 15.2 6.27664 15.8 6.77664C16.6 7.37664 17.7 8.07664 18.8 8.67664C21.3 10.1766 23.9 11.6766 24.1 13.9766C24.2 15.8766 21.9 16.6766 19.5 17.4766C18.1 17.9766 16 18.6766 15.7 19.3766C15.7 19.4766 15.6 19.5766 15.8 19.8766C16.5 21.1766 19.1 20.6766 21.7 20.1766C24.5 19.6766 27.4 19.0766 28.9 20.7766C30.8 23.0766 28.7 26.3766 26.9 28.9766C26.1 30.0766 25.3 31.3766 25.2 32.0766C25.1 32.5766 24.7 32.9766 24.2 32.9766H24.1C23.5 32.8766 23.2 32.3766 23.2 31.8766C23.3 30.7766 24.2 29.4766 25.3 27.8766C26.7 25.8766 28.4 23.2766 27.4 22.1766C26.6 21.3766 24.2 21.8766 22.1 22.2766ZM49.9 6.97664C49.9 5.67664 50.9 4.67664 52.2 4.67664C53.5 4.67664 54.5 5.67664 54.5 6.97664C54.5 8.27664 53.5 9.27664 52.2 9.27664C50.9 9.27664 49.9 8.27664 49.9 6.97664ZM56 16.8766C57.3 16.8766 58.3 17.8766 58.3 19.1766C58.3 20.4766 57.3 21.4766 56 21.4766C54.7 21.4766 53.7 20.4766 53.7 19.1766C53.7 17.8766 54.8 16.8766 56 16.8766ZM72.4 5.67664C72.4 4.37664 73.4 3.37664 74.7 3.37664C76 3.37664 77 4.37664 77 5.67664C77 6.97664 76 7.97664 74.7 7.97664C73.4 7.97664 72.4 6.87664 72.4 5.67664ZM29.6 10.3766C29.6 9.07664 30.6 8.07664 31.9 8.07664C33.2 8.07664 34.2 9.07664 34.2 10.3766C34.2 11.6766 33.2 12.6766 31.9 12.6766C30.6 12.6766 29.6 11.5766 29.6 10.3766ZM22.5 42.8766C22.5 44.1766 21.5 45.1766 20.2 45.1766C18.9 45.1766 17.9 44.1766 17.9 42.8766C17.9 41.5766 18.9 40.5766 20.2 40.5766C21.5 40.5766 22.5 41.5766 22.5 42.8766ZM34.6 51.0766C34.6 52.3766 33.6 53.3766 32.3 53.3766C31 53.3766 30 52.3766 30 51.0766C30 49.7766 31 48.7766 32.3 48.7766C33.6 48.7766 34.6 49.7766 34.6 51.0766ZM70.7 63.1766C70.7 64.4766 69.7 65.4766 68.4 65.4766C67.1 65.4766 66.1 64.4766 66.1 63.1766C66.1 61.8766 67.1 60.8766 68.4 60.8766C69.7 60.8766 70.7 61.8766 70.7 63.1766ZM2.3 42.6766C1 42.6766 0 41.6766 0 40.3766C0.1 39.1766 1.1 38.1766 2.3 38.1766C3.6 38.1766 4.6 39.1766 4.6 40.4766C4.6 41.6766 3.6 42.6766 2.3 42.6766ZM5.5 58.5766C5.5 59.8766 4.5 60.8766 3.2 60.8766C1.9 60.8766 0.9 59.8766 0.9 58.5766C0.9 57.2766 1.9 56.2766 3.2 56.2766C4.5 56.2766 5.5 57.3766 5.5 58.5766ZM77.9 50.5766C77.9 51.8766 76.9 52.8766 75.6 52.8766C74.3 52.8766 73.3 51.8766 73.3 50.5766C73.3 49.2766 74.3 48.2766 75.6 48.2766C76.9 48.2766 77.9 49.2766 77.9 50.5766ZM90.2 47.2766C90.2 48.5766 89.2 49.5766 87.9 49.5766C86.6 49.5766 85.6 48.5766 85.6 47.2766C85.6 45.9766 86.6 44.9766 87.9 44.9766C89.2 44.9766 90.2 45.9766 90.2 47.2766ZM85.5 67.6766C85.5 68.9766 84.5 69.9766 83.2 69.9766C81.9 69.9766 80.9 68.9766 80.9 67.6766C80.9 66.3766 81.9 65.3766 83.2 65.3766C84.5 65.3766 85.5 66.4766 85.5 67.6766Z" fill="#7ED321"/>
</svg>
