<svg width="59" height="37" viewBox="0 0 59 37" fill="none" xmlns="http://www.w3.org/2000/svg">
<path d="M48.8119 15.8547C43.5622 15.8547 39.3266 19.8151 38.8658 24.9722H36.0119C36.1045 23.9583 36.2873 23.0371 36.5651 22.1182C36.5651 21.933 36.5651 21.933 36.6577 21.7502C28.3662 18.248 22.0125 12.0795 19.617 3.60507L24.5913 2.31579C25.0519 2.22319 25.4199 1.66996 25.2371 1.21171C25.1445 0.751089 24.5913 0.38305 24.133 0.565887L19.2514 1.85517C18.9759 0.751094 18.9759 0.0126953 18.9759 0.0126953C18.9759 0.0126953 16.2122 3.14445 14.4623 5.16982C12.7124 7.19514 12.2517 10.0515 13.4484 12.445C13.7238 13.0908 14.2771 13.7343 14.5525 14.0097C14.4599 14.1023 12.5271 17.7849 12.6174 17.6021C11.5133 17.1415 10.3142 16.8661 9.11755 16.8661C4.14326 16.8661 0 20.9192 0 25.9837C0 31.0482 4.05305 35.1012 9.11755 35.1012C14.0918 35.1012 18.2351 31.0482 18.2351 25.9837C18.2351 22.8519 16.6704 20.1807 14.2747 18.5237L16.1172 15.2091C17.3139 16.1303 18.9711 17.4196 20.2604 19.445L23.207 17.0516C23.5751 16.7762 24.2209 16.7762 24.4963 17.2368C24.7717 17.6049 24.7717 18.2507 24.3111 18.5261L20.9965 21.1047C21.2719 21.7505 21.4571 22.4865 21.6423 23.3152L24.4963 21.1047C24.8643 20.8293 25.5102 20.8293 25.7856 21.2899C26.061 21.6579 26.061 22.3038 25.6004 22.5792L21.9154 25.5258C21.9154 26.079 21.9154 26.6299 21.8228 27.1831C21.8228 27.5511 21.8228 27.9191 21.9154 28.197L25.7832 25.0652C26.1513 24.7898 26.7971 24.7898 27.0725 25.2504C27.3479 25.6184 27.3479 26.2643 26.8873 26.5397L22.7488 29.9446C23.3946 30.6806 24.3135 31.1413 25.4199 31.1413H32.9729C34.8154 31.1413 36.3801 29.4839 36.1047 27.6415C36.1047 27.366 36.1047 27.1808 36.0121 26.9054H38.866C39.3267 31.9699 43.6551 36.023 48.8121 36.023C54.3372 36.023 58.8511 31.5093 58.8511 25.984C58.8511 20.4588 54.3398 15.855 48.8121 15.855L48.8119 15.8547ZM12.1587 25.8937C12.1587 27.6436 10.6842 29.1181 8.93431 29.1181C7.1844 29.1181 5.70991 27.6436 5.70991 25.8937C5.70991 24.1438 7.1844 22.6693 8.93431 22.6693C9.11951 22.6693 9.39493 22.6693 9.58013 22.7619L8.29085 25.0651C8.01542 25.5257 8.19825 26.0789 8.65888 26.3543C9.1195 26.6298 9.67275 26.4469 9.94816 25.9863L11.2374 23.6832C11.8809 24.2364 12.1587 25.065 12.1587 25.8937L12.1587 25.8937ZM48.8119 29.1157C47.3374 29.1157 46.1407 28.1945 45.7727 26.8126H48.4438C48.997 26.8126 49.365 26.3519 49.365 25.8913C49.365 25.3381 48.9044 24.9701 48.4438 24.9701H45.7727C46.1407 23.6808 47.43 22.6669 48.8119 22.6669C50.5618 22.6669 52.0362 24.1414 52.0362 25.8913C52.0362 27.6436 50.6544 29.1157 48.8119 29.1157Z" fill="#41B6E5"/>
<path d="M36.4722 19.7226C38.7754 15.2089 43.8398 12.0796 49.2745 12.0796H53.7882V10.4223L34.8121 10.4199C33.2474 12.355 31.2197 13.9197 28.9189 14.7484C30.8541 16.5909 33.34 18.2482 36.4719 19.7227L36.4722 19.7226Z" fill="#9DD8EF"/>
<path d="M22.6562 6.55186C23.6701 8.66981 25.1422 10.9729 27.3528 13.2757C29.2879 12.7225 31.128 11.6184 32.5099 10.144C32.0493 9.95879 31.5887 9.77597 31.128 9.49817C27.443 7.38022 26.7996 6.45898 25.0497 6.45898L22.6563 6.46136L22.6562 6.55186Z" fill="#41B6E5"/>
</svg>
