<svg width="81" height="51" viewBox="0 0 81 51" fill="none" xmlns="http://www.w3.org/2000/svg">
<path d="M6.33452 31.7004C8.31249 31.7004 9.69371 33.1953 9.69371 35.3352V36.316L10.6573 36.1325C19.5224 34.4542 27.8692 33.6388 36.172 33.6388C46.5295 33.6388 56.8904 34.927 67.8454 37.5758L68.8495 37.8177V13.6808L68.2587 13.5129C65.4851 12.7207 63.2299 9.86865 63.2299 7.15357V6.48018L62.5668 6.35532C53.5957 4.65893 45.1491 3.83398 36.7438 3.83398C26.252 3.83398 15.7689 5.13598 4.69324 7.81576L4.07324 7.96646V32.1749L5.1083 31.8804C5.52594 31.7607 5.93755 31.7004 6.33452 31.7004ZM5.69816 9.24607C16.4173 6.69804 26.5792 5.4589 36.7447 5.4589C44.8529 5.4589 53.0016 6.23648 61.6394 7.83384C61.9468 10.852 64.2511 13.766 67.2228 14.8795V35.7545C56.5115 33.2383 46.3443 32.0121 36.1712 32.0121C28.044 32.0121 19.8807 32.7837 11.2446 34.3681C10.851 31.8304 8.90752 30.0746 6.33366 30.0746C6.12355 30.0746 5.91085 30.0867 5.6973 30.1099V9.24607H5.69816Z" fill="url(#paint0_linear_762_817)"/>
<path d="M36.4602 29.0444C42.562 29.0444 47.3438 24.509 47.3438 18.7197C47.3438 12.6446 42.3588 7.51063 36.4594 7.50977C30.5616 7.50977 25.5801 12.6429 25.5801 18.7197C25.5801 24.5098 30.3584 29.0444 36.4602 29.0444ZM29.927 12.0203C31.6991 10.1594 34.019 9.13554 36.4602 9.13554C41.4779 9.13554 45.7172 13.5255 45.7172 18.7197C45.7172 23.6797 41.738 27.4204 36.4602 27.4204C31.1842 27.4204 27.205 23.6797 27.205 18.7197C27.205 16.2785 28.197 13.8363 29.927 12.0203Z" fill="url(#paint1_linear_762_817)"/>
<path d="M80.1583 13.8157L79.5581 13.6538C78.4989 13.3679 77.3545 13.076 76.0964 12.7677V9.75295L75.4945 9.59106C74.4353 9.30431 73.2926 9.01326 72.0328 8.70498V5.69023L71.4326 5.52834C59.2996 2.25698 47.8614 0.666504 36.4603 0.666504C25.0601 0.666504 13.6211 2.25698 1.48973 5.52834L0.888672 5.69023V42.0567L1.91253 41.7811C2.93295 41.5056 3.94045 41.2601 4.95139 41.0096V46.1211L5.97526 45.8438C6.99567 45.57 8.00317 45.3229 9.01412 45.0723V50.1838L10.038 49.9083C22.0281 46.6739 33.3284 45.1033 44.5858 45.1033C55.8431 45.1033 67.1443 46.6739 79.1361 49.9083L80.16 50.1838L80.1583 13.8157ZM2.51359 39.9392V6.93625C14.2824 3.81214 25.3933 2.29142 36.4603 2.29142C47.529 2.29142 58.6391 3.81128 70.4088 6.93625V8.31145V39.9392C58.6563 36.8513 47.5402 35.3512 36.4594 35.3512C35.7163 35.3512 34.9715 35.3744 34.2275 35.3882C33.6824 35.3986 33.1373 35.3986 32.5922 35.4166C31.8663 35.4382 31.1386 35.4804 30.4119 35.5174C29.8091 35.5475 29.2063 35.5716 28.6035 35.6078C27.8897 35.6552 27.1741 35.7172 26.4594 35.774C25.8411 35.8248 25.2237 35.8713 24.6045 35.9324C23.8846 36.0013 23.1613 36.0857 22.4388 36.1658C21.8283 36.2364 21.2169 36.3053 20.6047 36.3828C19.8598 36.4784 19.1132 36.5843 18.3658 36.6937C17.7811 36.7798 17.1947 36.8668 16.6074 36.9615C15.8246 37.0863 15.0393 37.2189 14.2523 37.3584C13.7072 37.4558 13.1612 37.5565 12.6153 37.6616C11.7835 37.82 10.9482 37.9845 10.1112 38.1576C9.61431 38.2618 9.11573 38.3711 8.61714 38.4805C7.73364 38.6759 6.84756 38.8723 5.95803 39.0858C5.82887 39.1168 5.70228 39.1427 5.57312 39.1745L4.95139 39.3244V39.3364C4.13937 39.5345 3.33164 39.7239 2.51359 39.9392ZM6.57631 44.0011V40.604C8.68517 40.1045 10.7691 39.6723 12.8392 39.277C13.3955 39.1694 13.9535 39.0583 14.5089 38.9593C15.2443 38.8301 15.9762 38.7138 16.7081 38.5959C17.3359 38.4934 17.9645 38.3944 18.5905 38.3014C19.2872 38.1989 19.9812 38.1076 20.6744 38.0172C21.3323 37.9328 21.9885 37.8527 22.6438 37.7769C23.3163 37.7012 23.9888 37.6288 24.6588 37.5651C25.3313 37.4979 26.003 37.442 26.6738 37.3886C27.33 37.3343 27.9861 37.2809 28.6414 37.2388C29.3303 37.1931 30.0183 37.163 30.7055 37.1294C31.341 37.0993 31.9774 37.0639 32.612 37.0433C33.406 37.0183 34.1999 37.0114 34.9938 37.0011C35.4873 36.9959 35.9807 36.9796 36.475 36.9796C47.728 36.9796 59.0249 38.5485 71.0081 41.7811L72.032 42.0567V10.3781C72.8982 10.5925 73.7051 10.7975 74.4689 10.9998V12.3742L74.4706 44.0019C62.7182 40.9157 51.6004 39.4139 40.5213 39.4139C39.7782 39.4139 39.0333 39.4389 38.2893 39.4527C37.7442 39.463 37.1991 39.463 36.6541 39.4794C35.9281 39.5026 35.2005 39.5448 34.4737 39.5801C33.871 39.6103 33.2682 39.6344 32.6654 39.6723C31.9515 39.7179 31.236 39.7799 30.5204 39.8384C29.903 39.8893 29.2855 39.9357 28.6664 39.9969C27.9465 40.0658 27.2232 40.1484 26.5007 40.2303C25.8902 40.2991 25.2788 40.368 24.6665 40.4473C23.9225 40.5428 23.1751 40.6488 22.4276 40.7581C21.843 40.8442 21.2574 40.9312 20.6693 41.0259C19.8865 41.1508 19.1012 41.2834 18.3141 41.4229C17.769 41.5185 17.2231 41.6209 16.6763 41.726C15.8444 41.8844 15.0092 42.0472 14.1722 42.222C13.6753 42.3262 13.1767 42.4356 12.6781 42.5449C11.7946 42.7404 10.9086 42.9367 10.0182 43.1503C9.88987 43.1804 9.76328 43.2054 9.63412 43.2364L9.01153 43.3879V43.4C8.20209 43.5981 7.39437 43.7858 6.57631 44.0011ZM44.5858 43.4766C33.5058 43.4766 22.3906 44.9784 10.639 48.0646V44.6676C12.7488 44.1681 14.8318 43.7341 16.9028 43.3389C17.459 43.2329 18.017 43.1219 18.5716 43.0228C19.3078 42.8919 20.0389 42.7757 20.7717 42.6594C21.3995 42.557 22.0272 42.4562 22.6533 42.3649C23.3499 42.2625 24.044 42.1695 24.7371 42.0808C25.395 41.9964 26.0503 41.9146 26.7065 41.8405C27.379 41.7648 28.0516 41.6924 28.7224 41.627C29.3949 41.5615 30.0666 41.5056 30.7374 41.4504C31.3935 41.3979 32.0497 41.3445 32.705 41.3023C33.3939 41.2567 34.0819 41.2248 34.7691 41.193C35.4046 41.1628 36.041 41.1258 36.6756 41.1069C37.4695 41.0819 38.2635 41.0733 39.0574 41.0647C39.5508 41.0578 40.0451 41.0414 40.5394 41.0414C51.7924 41.0414 63.0902 42.6121 75.0734 45.843L76.0973 46.1203V14.4408C76.9635 14.6544 77.7704 14.8602 78.5342 15.0626V48.0646C66.7809 44.9784 55.6657 43.4766 44.5858 43.4766Z" fill="url(#paint2_linear_762_817)"/>
<defs>
<linearGradient id="paint0_linear_762_817" x1="36.4614" y1="3.83398" x2="36.4614" y2="37.8177" gradientUnits="userSpaceOnUse">
<stop stop-color="#DC603A"/>
<stop offset="1" stop-color="#F19661"/>
</linearGradient>
<linearGradient id="paint1_linear_762_817" x1="36.4619" y1="7.50977" x2="36.4619" y2="29.0444" gradientUnits="userSpaceOnUse">
<stop stop-color="#DC603A"/>
<stop offset="1" stop-color="#F19661"/>
</linearGradient>
<linearGradient id="paint2_linear_762_817" x1="40.5243" y1="0.666504" x2="40.5243" y2="50.1838" gradientUnits="userSpaceOnUse">
<stop stop-color="#DC603A"/>
<stop offset="1" stop-color="#F19661"/>
</linearGradient>
</defs>
</svg>
