<svg width="36" height="36" viewBox="0 0 36 36" fill="none" xmlns="http://www.w3.org/2000/svg">
<g clip-path="url(#clip0_771_1455)">
<path d="M17.9997 16.7143C20.13 16.7143 21.8569 14.9874 21.8569 12.8571C21.8569 10.7269 20.13 9 17.9997 9C15.8695 9 14.1426 10.7269 14.1426 12.8571C14.1426 14.9874 15.8695 16.7143 17.9997 16.7143Z" fill="#41B6E5"/>
<path d="M24.4284 20.5715C24.4284 18.4445 22.6982 16.7144 20.5713 16.7144H17.9999H15.4284C13.3015 16.7144 11.5713 18.4445 11.5713 20.5715V21.8572C11.5713 22.5672 12.147 23.1429 12.857 23.1429H23.1427C23.8534 23.1429 24.4284 22.5672 24.4284 21.8572V20.5715Z" fill="#41B6E5"/>
<path d="M32.143 28.2859C31.5483 28.2859 30.9915 28.4323 30.488 28.6737C30.4848 28.6704 30.4839 28.6658 30.4806 28.6625L26.6235 24.8054C26.1212 24.3032 25.3076 24.3032 24.8054 24.8054C24.3032 25.3076 24.3032 26.1212 24.8054 26.6235L28.6625 30.4806C28.6658 30.4839 28.6704 30.4848 28.6737 30.488C28.4324 30.9915 28.2859 31.5484 28.2859 32.143C28.2859 34.27 30.016 36.0001 32.143 36.0001C34.27 36.0001 36.0001 34.27 36.0001 32.143C36.0001 30.016 34.27 28.2859 32.143 28.2859Z" fill="#41B6E5"/>
<path d="M19.2854 28.5228V25.7144C19.2854 25.0044 18.7098 24.4287 17.9997 24.4287C17.2897 24.4287 16.714 25.0044 16.714 25.7144V28.5228C15.2207 29.0552 14.1426 30.4691 14.1426 32.143C14.1426 34.27 15.8728 36.0001 17.9997 36.0001C20.1267 36.0001 21.8569 34.27 21.8569 32.143C21.8569 30.4691 20.7788 29.0552 19.2854 28.5228Z" fill="#41B6E5"/>
<path d="M9.37667 24.8054L5.51953 28.6625C5.51624 28.6658 5.51537 28.6703 5.51216 28.6736C5.00867 28.4323 4.45182 28.2859 3.85714 28.2859C1.73019 28.2859 0 30.016 0 32.143C0 34.27 1.73019 36.0001 3.85714 36.0001C5.9841 36.0001 7.71429 34.27 7.71429 32.143C7.71429 31.5483 7.56785 30.9915 7.32655 30.488C7.32984 30.4848 7.33432 30.4839 7.33761 30.4806L11.1948 26.6235C11.697 26.1212 11.697 25.3076 11.1948 24.8054C10.6925 24.3032 9.87891 24.3032 9.37667 24.8054Z" fill="#41B6E5"/>
<path d="M35.1211 2.63735L27.4068 0.065918C27.1419 -0.0219727 26.8581 -0.0219727 26.5932 0.065918L18.8789 2.63735C18.3541 2.8125 18 3.30343 18 3.85714C18 4.41085 18.3541 4.90179 18.8789 5.07694L26.5932 7.64837C26.7257 7.69231 26.8625 7.71428 27 7.71428C27.1375 7.71428 27.2743 7.69231 27.4068 7.64837L33.4286 5.64109V9C33.4286 9.71003 34.0043 10.2857 34.7143 10.2857C35.4243 10.2857 36 9.71003 36 9V3.85714C36 3.30343 35.6459 2.8125 35.1211 2.63735Z" fill="#9DD8EF"/>
<path d="M27.8139 8.86809C27.549 8.95598 27.2765 8.99993 27.0003 8.99993C26.7241 8.99993 26.4516 8.95598 26.1885 8.86872L21.8574 7.42504V8.99993C21.8574 9.55364 22.2115 10.0446 22.7363 10.2197L26.5935 11.5054C26.7259 11.5494 26.8628 11.5714 27.0003 11.5714C27.1378 11.5714 27.2746 11.5494 27.4071 11.5054L31.2642 10.2197C31.7891 10.0446 32.1431 9.55364 32.1431 8.99993V7.4248L27.8139 8.86809Z" fill="#41B6E5"/>
</g>
<defs>
<clipPath id="clip0_771_1455">
<rect width="36" height="36" fill="white"/>
</clipPath>
</defs>
</svg>
