<svg width="35" height="37" viewBox="0 0 35 37" fill="none" xmlns="http://www.w3.org/2000/svg">
<path d="M29.2857 8.57051C30.4683 8.57051 31.4269 7.61187 31.4269 6.42701C31.4269 6.42701 31.4269 6.42701 31.4269 6.42528V4.28525L35 0.713919L32.8548 0C32.8548 0 28.1651 4.6885 28.3439 4.51088C28.5232 4.33154 27.144 5.98327 27.144 6.42643V14.2848L31.4269 18.57V29.2834C31.4269 29.2834 31.4269 29.3731 31.4269 29.6404C31.4269 30.2311 30.9479 30.7113 30.3578 30.7113C29.7648 30.7113 29.2852 30.2317 29.2852 29.6404C29.2852 29.3731 29.2852 29.2834 29.2852 29.2834V25.7121C29.2852 25.7121 29.2852 25.612 29.2852 25.3551C29.2852 23.5796 27.8469 22.1408 26.0702 22.1408C25.8116 22.1408 25.7156 22.1408 25.7156 22.1408H24.9982V2.14234C24.9982 0.959799 24.0395 0.000578223 22.8564 0.000578223H4.28699C3.10214 0.000578223 2.14349 0.959221 2.14349 2.14234V34.2832H0V36.4261H27.144V34.2832H24.9988V24.2848H25.7162C25.7162 24.2848 25.8018 24.2848 26.0708 24.2848C26.6609 24.2848 27.1434 24.7639 27.1434 25.3557C27.1434 25.623 27.1434 25.7127 27.1434 25.7127V29.284C27.1434 29.284 27.1434 29.3841 27.1434 29.641C27.1434 31.4148 28.5776 32.8553 30.3578 32.8553C32.1304 32.8553 33.5722 31.4154 33.5722 29.641C33.5722 29.3841 33.5722 29.284 33.5722 29.284V17.8561L29.2857 13.5697V8.57051ZM20.7152 12.8558H6.42817V4.28583H20.7147L20.7152 12.8558Z" fill="#41B6E5"/>
</svg>
