<svg width="37" height="37" viewBox="0 0 37 37" fill="none" xmlns="http://www.w3.org/2000/svg">
<path d="M15.6603 2.74759H8.79136V0.685185C8.7919 0.50363 8.86426 0.329665 8.99264 0.201285C9.12102 0.0729053 9.29499 0.000542231 9.47654 0H14.9752C15.1567 0.000542231 15.3307 0.0729053 15.4591 0.201285C15.5874 0.329665 15.6598 0.50363 15.6603 0.685185V2.74759ZM14.29 1.37037H10.1617V2.74759H14.29V1.37037ZM34.0439 14.8206L31.5155 36.3902C31.4967 36.5579 31.4168 36.7128 31.2911 36.8252C31.1653 36.9377 31.0025 37 30.8338 37H6.1671C5.99836 37 5.83556 36.9377 5.7098 36.8252C5.58403 36.7128 5.50412 36.5579 5.48534 36.3902L3.09404 14.8171C3.08303 14.7215 3.09236 14.6247 3.12142 14.5329C3.15049 14.4412 3.19863 14.3566 3.2627 14.2848C3.32676 14.2129 3.40528 14.1555 3.49313 14.1162C3.58097 14.0768 3.67613 14.0565 3.77237 14.0566H33.3621C33.4589 14.0563 33.5546 14.0766 33.6429 14.116C33.7313 14.1554 33.8103 14.2131 33.8747 14.2853C33.9391 14.3575 33.9875 14.4425 34.0167 14.5348C34.0458 14.6271 34.0551 14.7245 34.0439 14.8206ZM27.8189 18.8769C27.8189 18.6951 27.7468 18.5209 27.6183 18.3924C27.4898 18.2639 27.3155 18.1917 27.1338 18.1917C26.952 18.1917 26.7778 18.2639 26.6493 18.3924C26.5208 18.5209 26.4486 18.6951 26.4486 18.8769V21.6073C26.4486 23.7153 25.6112 25.7369 24.1206 27.2275C22.6301 28.7181 20.6084 29.5555 18.5004 29.5555C16.3925 29.5555 14.3708 28.7181 12.8802 27.2275C11.3897 25.7369 10.5523 23.7153 10.5523 21.6073V18.8769C10.5523 18.6951 10.4801 18.5209 10.3516 18.3924C10.2231 18.2639 10.0488 18.1917 9.8671 18.1917C9.68537 18.1917 9.5111 18.2639 9.3826 18.3924C9.2541 18.5209 9.18191 18.6951 9.18191 18.8769V21.6073C9.18191 24.0787 10.1637 26.4489 11.9112 28.1965C13.6588 29.9441 16.029 30.9258 18.5004 30.9258C20.9719 30.9258 23.3421 29.9441 25.0896 28.1965C26.8372 26.4489 27.8189 24.0787 27.8189 21.6073V18.8769ZM23.516 6.60176V6.59833C23.5455 5.31611 23.195 4.0538 22.5088 2.97028C22.3792 2.77709 22.2312 2.59696 22.0668 2.43241C21.8298 2.18795 21.5514 1.9873 21.2446 1.83972L21.1555 1.79861C21.093 1.77108 21.0289 1.74706 20.9637 1.72667C20.8917 1.70269 20.8198 1.68213 20.7478 1.665L20.6451 1.64444C20.6375 1.64138 20.6292 1.64021 20.6211 1.64102C20.5748 1.63083 20.5279 1.62396 20.4806 1.62046C20.3988 1.61078 20.3164 1.60621 20.2339 1.60676C18.5107 1.60676 17.1403 3.52185 16.9656 6.05704C16.8834 6.07074 16.8046 6.08444 16.7258 6.105C16.5846 6.13519 16.446 6.17643 16.3113 6.22833C15.9215 6.37452 15.5649 6.59734 15.2627 6.88366C14.9605 7.16997 14.7187 7.51395 14.5517 7.89528C14.3846 8.27661 14.2957 8.68756 14.2902 9.10383C14.2847 9.5201 14.3626 9.93326 14.5195 10.3189C13.9804 10.4651 13.4969 10.7682 13.1303 11.1897C12.7637 11.6111 12.5306 12.132 12.4605 12.6862H20.8883C21.8884 10.571 23 8.51024 24.2183 6.51269C23.9815 6.51508 23.7459 6.54498 23.516 6.60176ZM9.87052 12.2614C8.27747 8.66759 6.57478 6.91694 4.807 7.02315L4.09441 1.74037C4.08402 1.65001 4.05573 1.56262 4.01118 1.48331C3.96663 1.40401 3.90672 1.33438 3.83496 1.27849C3.76319 1.2226 3.68101 1.18158 3.5932 1.15782C3.5054 1.13405 3.41374 1.12803 3.32359 1.1401C3.23343 1.15216 3.14658 1.18208 3.06812 1.22809C2.98966 1.27411 2.92115 1.3353 2.86661 1.40809C2.81206 1.48088 2.77258 1.56382 2.75045 1.65205C2.72832 1.74027 2.724 1.83203 2.73774 1.92194L3.4058 6.87583L1.12756 4.96074C0.988542 4.84353 0.808656 4.78634 0.627475 4.80176C0.446294 4.81718 0.27866 4.90395 0.161449 5.04296C0.0442376 5.18198 -0.0129483 5.36187 0.00247134 5.54305C0.017891 5.72423 0.104653 5.89186 0.243671 6.00907L2.70691 8.07833C1.94293 8.92454 1.5695 10.336 2.65895 12.6862H9.91163C9.94412 12.5439 9.9297 12.3949 9.87052 12.2614ZM15.6638 5.01213C15.6609 4.9917 15.6598 4.97108 15.6603 4.95046V4.12481H8.79136V4.95046C8.79247 5.07317 8.76144 5.19404 8.70133 5.30103C8.64122 5.40802 8.55415 5.4974 8.44876 5.56028C8.25432 5.67942 8.06779 5.81102 7.89034 5.95426C7.70698 6.09946 7.53517 6.25868 7.37645 6.43046C8.72969 7.35204 9.96987 9.10268 11.121 11.703C11.1557 11.7821 11.1855 11.8633 11.2101 11.9462C11.4765 10.9651 12.0901 10.1142 12.9367 9.55148C12.9264 9.41787 12.9196 9.28083 12.9196 9.1438C12.9228 8.26221 13.1845 7.40091 13.6722 6.66654C14.16 5.93217 14.8524 5.35696 15.6638 5.01213ZM36.7435 2.13435C36.6106 1.72708 36.3916 1.3532 36.1013 1.03812C35.8111 0.723031 35.4564 0.474131 35.0614 0.308333C33.6739 -0.287778 32.2487 0.0171295 30.8406 0.938704L33.3107 5.84463C33.392 6.00736 33.4055 6.19564 33.3484 6.36832C33.2913 6.54101 33.1681 6.68405 33.0058 6.7662C32.9097 6.81301 32.8043 6.8376 32.6975 6.83815C32.5704 6.83801 32.4459 6.80273 32.3377 6.73622C32.2295 6.66971 32.1417 6.57456 32.0842 6.4613L29.7306 1.78491C29.167 2.28637 28.6393 2.8267 28.1513 3.40194L30.8269 8.71556C30.8674 8.79563 30.8918 8.88291 30.8986 8.9724C30.9053 9.06188 30.8944 9.15183 30.8664 9.23709C30.8384 9.32236 30.7939 9.40127 30.7354 9.46932C30.6769 9.53738 30.6055 9.59323 30.5254 9.6337C30.4302 9.68312 30.3244 9.70897 30.2171 9.70907C30.09 9.70936 29.9653 9.67427 29.857 9.60771C29.7487 9.54115 29.661 9.44576 29.6039 9.33222L27.2091 4.57704C26.7364 5.20056 26.2704 5.86861 25.8148 6.57093C25.8247 6.58213 25.8328 6.59485 25.8388 6.60861L28.35 11.5865C28.4312 11.7492 28.4448 11.9375 28.3876 12.1102C28.3305 12.2829 28.2073 12.4259 28.0451 12.5081C27.949 12.5549 27.8436 12.5794 27.7367 12.58C27.6097 12.5799 27.4852 12.5446 27.3769 12.4781C27.2687 12.4116 27.181 12.3164 27.1235 12.2031L24.972 7.93102C24.0641 9.4487 23.2042 11.0692 22.4128 12.6862H34.246C36.627 7.72204 37.4664 4.1762 36.7435 2.13435Z" fill="#41B6E5"/>
</svg>
