<svg width="286" height="115" viewBox="0 0 286 115" fill="none" xmlns="http://www.w3.org/2000/svg">
<path d="M277.351 40.1181H265.657C265.657 40.1181 261.896 33.7601 265.004 28.7683C265.004 28.7683 268.765 23.3575 274.734 26.7096C274.734 26.7096 280.132 28.721 277.351 40.1181ZM186.824 40.2021H160.819L165.644 32.1568C172.432 24.1117 181.018 25.8717 181.018 25.8717C189.932 29.3075 186.824 40.2021 186.824 40.2021ZM279.805 20.173C279.805 20.173 266.721 12.9658 257.889 24.8659C257.889 24.8659 253.308 32.0173 257.125 40.1741C257.125 40.1741 248.183 41.5149 248.512 32.0173L248.503 23.7485H240.661V34.8106C240.661 34.8106 240.443 40.5093 235.646 40.2858C235.646 40.2858 229.975 40.621 229.975 35.8163V23.972L221.906 23.7485V35.5928C221.906 35.5928 221.689 40.5093 217.218 40.1741C217.218 40.1741 211.549 40.9562 211.33 36.0397V23.7485L203.261 23.6368V34.4754C203.261 34.4754 204.024 41.8501 194.975 40.1741C194.975 40.1741 198.355 23.525 185.162 18.832C185.162 18.832 171.641 13.3568 161.065 30.3411V9.89302H152.778V39.9506L146.672 40.0624V47.3399H198.463C198.463 47.3399 204.978 47.4928 207.922 44.2245C207.922 44.2245 211.193 48.3625 219.535 47.3411C219.535 47.3411 223.379 47.3253 226.977 44.3922C226.977 44.3922 231.311 48.4354 238.59 47.5033C238.59 47.5033 243.332 46.9901 246.032 43.4704C246.032 43.4704 248.157 47.7088 255.108 47.6428L283.328 47.3399C283.328 47.3399 291.254 29.3914 279.805 20.173Z" fill="white"/>
<path d="M136.369 9.89416H144.384V18.2465C144.384 18.2465 145.201 29.6438 131.463 29.7278H82.8873C82.8873 29.7278 72.9923 29.4763 72.5834 34.5046C72.5834 34.5046 72.1744 37.7729 78.0624 39.4489C78.0624 39.4489 86.2402 40.1193 88.121 40.0355L115.353 40.0428L115.435 47.6617H82.3965C82.3965 47.6617 65.1417 48.3321 64.8964 35.8454C64.8964 35.8454 62.8518 23.2747 79.698 22.3531H129.582C129.582 22.3531 136.778 23.5262 136.615 14.3915L136.369 9.89416Z" fill="white"/>
<path d="M129.5 39.6796C129.5 42.1173 127.572 44.0933 125.194 44.0933C122.815 44.0933 120.887 42.1173 120.887 39.6796C120.887 37.2422 122.815 35.266 125.194 35.266C127.572 35.266 129.5 37.2422 129.5 39.6796Z" fill="white"/>
<path d="M140.132 39.6796C140.132 42.1173 138.204 44.0933 135.825 44.0933C133.447 44.0933 131.519 42.1173 131.519 39.6796C131.519 37.2422 133.447 35.266 135.825 35.266C138.204 35.266 140.132 37.2422 140.132 39.6796Z" fill="white"/>
<path d="M270.249 4.41402C270.249 6.85169 268.32 8.82764 265.941 8.82764C263.563 8.82764 261.634 6.85169 261.634 4.41402C261.634 1.97636 263.563 0.000400543 265.941 0.000400543C268.32 0.000400543 270.249 1.97636 270.249 4.41402Z" fill="white"/>
<path d="M280.879 4.41402C280.879 6.85169 278.95 8.82764 276.571 8.82764C274.192 8.82764 272.266 6.85169 272.266 4.41402C272.266 1.97636 274.192 0.000400543 276.571 0.000400543C278.95 0.000400543 280.879 1.97636 280.879 4.41402Z" fill="white"/>
<path d="M135.061 48.9028C135.061 51.3405 133.133 53.3164 130.754 53.3164C128.376 53.3164 126.447 51.3405 126.447 48.9028C126.447 46.4653 128.376 44.4892 130.754 44.4892C133.133 44.4892 135.061 46.4653 135.061 48.9028Z" fill="white"/>
<path d="M56.0643 31.57L49.5765 10.5633C49.5765 10.5633 48.2135 4.86465 42.2165 7.32301L8.63357 18.6084L6.83445 19.1387C6.83445 19.1387 1.51894 21.0108 3.39985 25.6201L9.61488 44.6436L29.2413 105.652L29.8955 107.664C29.8955 107.664 31.3675 112.44 36.6013 110.429L56.8819 103.641C56.8819 103.641 58.9672 102.719 59.5806 104.186C59.5806 104.186 60.5209 105.778 58.0678 106.532L37.6235 113.446C37.6235 113.446 30.0999 116.924 27.2378 109.549L0.414961 26.5C0.414961 26.5 -2.2428 18.8739 5.89408 16.0245L40.4857 4.45969C40.4857 4.45969 48.9496 0.479019 52.0162 8.06319L59.0081 29.6845L59.5396 31.612C59.5396 31.612 60.3984 33.4557 58.5583 34.0004C58.5583 34.0004 57.2759 34.4111 56.5548 32.6176L56.0643 31.57Z" fill="white"/>
<path d="M51.1028 91.5437C49.8102 91.5437 48.7585 92.6215 48.7585 93.9461C48.7585 95.2708 49.8102 96.3487 51.1028 96.3487C52.3954 96.3487 53.4471 95.2708 53.4471 93.9461C53.4471 92.6215 52.3954 91.5437 51.1028 91.5437ZM51.1028 99.8911C47.9041 99.8911 45.3018 97.2241 45.3018 93.9461C45.3018 90.6682 47.9041 88.0013 51.1028 88.0013C54.3017 88.0013 56.9038 90.6682 56.9038 93.9461C56.9038 97.2241 54.3017 99.8911 51.1028 99.8911Z" fill="white"/>
<path d="M66.1777 52.654H73.8362L73.9794 76.9986L90.0826 62.7468L98.9144 62.8585L85.9424 75.8474L100.441 100.387H91.5742L80.0797 80.4775L74.1431 86.0698V100.387H66.1777V52.654Z" fill="white"/>
<path d="M124.23 88.6337C124.411 91.0532 125.181 92.8128 126.538 93.9124C127.895 95.0122 129.894 95.5622 132.536 95.5622C133.803 95.5622 134.871 95.4247 135.739 95.1498C136.608 94.8747 137.314 94.5087 137.857 94.0499C138.399 93.592 138.788 93.0514 139.024 92.4279C139.259 91.805 139.377 91.1269 139.377 90.3934C139.377 89.3673 138.997 88.4051 138.237 87.5065C137.477 86.6087 136.083 85.9582 134.056 85.5544L129.008 84.6195C127.017 84.2536 125.262 83.7769 123.742 83.1898C122.222 82.6039 120.946 81.8427 119.915 80.908C118.883 79.9732 118.096 78.8278 117.553 77.4712C117.01 76.1154 116.739 74.5019 116.739 72.6322C116.739 70.7626 117.109 69.1132 117.852 67.6833C118.593 66.2536 119.625 65.063 120.946 64.1094C122.267 63.1564 123.85 62.432 125.696 61.9374C127.542 61.4423 129.568 61.1948 131.776 61.1948C134.599 61.1948 136.951 61.5249 138.834 62.1847C140.715 62.8446 142.235 63.7157 143.394 64.7965C144.552 65.8784 145.411 67.1335 145.973 68.5632C146.533 69.9929 146.904 71.4776 147.085 73.0172L139.431 74.0069C139.032 71.8445 138.264 70.2867 137.124 69.3331C135.984 68.3801 134.255 67.9034 131.939 67.9034C130.563 67.9034 129.433 68.0229 128.546 68.2609C127.659 68.4998 126.945 68.8107 126.402 69.1956C125.859 69.5804 125.479 70.0299 125.262 70.5427C125.045 71.0564 124.936 71.5875 124.936 72.1373C124.936 73.6041 125.343 74.7037 126.158 75.4368C126.972 76.1704 128.356 76.7384 130.311 77.1412L135.631 78.186C139.829 79.0298 142.905 80.3951 144.86 82.2825C146.814 84.1712 147.791 86.893 147.791 90.4482C147.791 92.1717 147.474 93.7569 146.841 95.2047C146.207 96.6534 145.267 97.9181 144.018 98.9988C142.77 100.08 141.204 100.923 139.322 101.528C137.44 102.133 135.232 102.436 132.699 102.436C127.415 102.436 123.37 101.29 120.566 98.9988C117.761 96.7083 116.25 93.2526 116.033 88.6337H124.23Z" fill="white"/>
<path d="M155.068 69.6192L149.502 69.5355V62.7473L155.614 62.6355L155.559 52.6545H163.519L163.573 62.6355L172.637 62.7892L172.594 69.3958L163.968 69.284L163.764 88.9779C163.846 91.5758 164.975 92.3112 165.74 93.0055C166.505 93.7007 167.496 94.048 168.711 94.048C169.341 94.048 169.983 94.0121 170.636 93.9402C171.288 93.8682 171.929 93.7368 172.56 93.5447L173.809 99.7462C172.504 100.178 171.232 100.476 169.995 100.645C168.756 100.812 167.574 100.896 166.45 100.896C162.578 100.896 159.708 99.9147 157.841 97.9488C155.972 95.9841 155.039 92.6768 155.039 88.0271L155.068 69.6192Z" fill="white"/>
<path d="M185.72 81.7702C185.72 84.2179 185.92 86.1734 186.322 87.6366C186.722 89.101 187.372 90.2885 188.27 91.1989C189.214 92.0634 190.171 92.6274 191.14 92.8909C192.107 93.1555 193.087 93.2866 194.08 93.2866C195.166 93.2866 196.204 93.0714 197.197 92.6386C198.189 92.2069 199.05 91.5231 199.783 90.5878C200.514 89.6527 201.093 88.4406 201.518 86.9526C201.945 85.4659 202.156 83.6664 202.156 81.5539C202.156 79.3471 201.954 77.4993 201.554 76.0115C201.152 74.5246 200.598 73.3125 199.889 72.3762C199.181 71.4412 198.341 70.7696 197.374 70.3613C196.406 69.9534 195.378 69.7492 194.293 69.7492C193.064 69.7492 192.001 69.9175 191.104 70.2537C190.206 70.5901 189.333 71.1172 188.483 71.8369C187.537 72.7485 186.841 73.9001 186.393 75.2916C185.943 76.6842 185.72 78.4592 185.72 80.6186V81.7702ZM177.094 62.6299L185.217 62.7976V68.0493C188.051 63.9835 192.213 61.5685 197.126 61.5685C202.273 61.5685 206.123 63.3389 208.675 66.8788C211.225 70.4196 212.5 75.2748 212.5 81.4463C212.5 84.413 212.132 87.1152 211.402 89.555C210.669 91.995 209.606 94.0884 208.213 95.8342C206.819 97.5812 205.131 98.9322 203.148 99.8886C201.164 100.845 198.92 101.324 196.418 101.324C194.576 101.324 192.745 100.992 190.927 100.328C189.108 99.6645 187.149 98.478 185.544 96.4867L185.599 114.477H177.312L177.094 62.6299Z" fill="white"/>
<path d="M238.55 82.6874L234.054 82.9806C231.983 83.0766 230.17 83.6538 228.901 83.9865C227.631 84.3199 226.62 85.1135 225.939 85.6134C225.257 86.1134 224.445 87.0979 224.21 87.7643C223.976 88.4316 223.859 89.1692 223.859 89.9784C223.859 91.2171 224.416 92.365 225.262 93.0791C226.108 93.7933 227.478 94.2523 228.983 94.2523C231.522 94.2523 233.927 93.6831 235.525 92.4925C236.417 91.826 237.141 90.715 237.704 89.6904C238.269 88.6671 238.55 87.3939 238.55 85.8694V82.6874ZM239.55 95.7604C238.09 97.4275 235.781 98.988 233.971 100.035C232.162 101.081 229.404 101.455 226.539 101.455C224.893 101.455 223.33 101.241 221.849 100.812C220.368 100.384 219.074 99.7174 217.97 98.8124C216.867 97.9083 215.984 96.7534 215.326 95.3483C214.669 93.9444 214.34 92.2661 214.34 90.313C214.34 87.7421 214.903 85.6473 216.032 84.028C217.161 82.4098 218.642 81.1478 220.474 80.2427C222.307 79.3387 224.249 78.4598 226.53 78.0783C228.808 77.6976 231.17 77.4199 233.521 77.324L239.177 76.8764V75.0193C239.177 72.734 238.554 71.1626 237.31 70.3056C236.064 69.4485 233.731 69.5295 232.039 69.5295C228.135 69.5295 225.255 70.5531 224.689 73.5528L216.757 72.3796C217.415 68.4758 218.499 65.9144 221.226 64.1759C223.953 62.4382 227.618 61.569 232.225 61.569C235.046 61.569 237.444 61.9148 239.419 62.6045C241.392 63.2952 242.979 64.2829 244.179 65.5686C245.377 66.8542 246.411 68.9468 246.952 70.7793C247.492 72.6128 247.763 74.6717 247.763 76.9572L247.259 100.238H239.656L239.55 95.7604Z" fill="white"/>
<path d="M252.297 105.695C253.662 106.076 255.05 106.267 256.464 106.267C257.781 106.267 258.841 105.945 259.641 105.302C260.441 104.658 261.123 103.525 261.689 101.904L262.819 98.757L247.495 63.0657H257.016L266.765 89.9808L275.88 62.7386H284.766L271.503 101.475C270.657 103.621 269.855 105.491 269.104 107.09C268.35 108.687 267.49 110.022 266.527 111.095C265.56 112.168 264.408 112.966 263.065 113.491C261.725 114.015 260.066 114.278 258.087 114.278C256.862 114.278 255.65 114.194 254.451 114.028C253.251 113.86 251.991 113.563 250.674 113.134L252.297 105.695Z" fill="white"/>
<path d="M112.045 100.561H103.666V74.8014H112.045V100.561Z" fill="white"/>
<path d="M112.045 70.9927H103.666V62.9308H112.045V70.9927Z" fill="white"/>
</svg>
