<svg width="179" height="72" viewBox="0 0 179 72" fill="none" xmlns="http://www.w3.org/2000/svg">
<path d="M173.587 25.1089H166.268C166.268 25.1089 163.914 21.1296 165.859 18.0053C165.859 18.0053 168.213 14.6189 171.949 16.7168C171.949 16.7168 175.327 17.9757 173.587 25.1089ZM116.928 25.1614H100.652L103.672 20.1261C107.92 15.0909 113.294 16.1924 113.294 16.1924C118.873 18.3428 116.928 25.1614 116.928 25.1614ZM175.122 12.6257C175.122 12.6257 166.933 8.11495 161.406 15.5629C161.406 15.5629 158.539 20.0388 160.928 25.1439C160.928 25.1439 155.331 25.9831 155.537 20.0388L155.531 14.8636H150.623V21.7871C150.623 21.7871 150.487 25.3537 147.484 25.2138C147.484 25.2138 143.935 25.4236 143.935 22.4164V15.0034L138.885 14.8636V22.2766C138.885 22.2766 138.749 25.3537 135.951 25.1439C135.951 25.1439 132.403 25.6334 132.265 22.5563V14.8636L127.215 14.7936V21.5773C127.215 21.5773 127.693 26.1929 122.029 25.1439C122.029 25.1439 124.145 14.7237 115.888 11.7864C115.888 11.7864 107.425 8.35965 100.806 18.9897V6.19176H95.6194V25.004L91.7979 25.074V29.6288H124.213C124.213 29.6288 128.29 29.7245 130.133 27.679C130.133 27.679 132.18 30.2688 137.401 29.6295C137.401 29.6295 139.807 29.6197 142.059 27.7839C142.059 27.7839 144.771 30.3144 149.327 29.731C149.327 29.731 152.295 29.4099 153.985 27.207C153.985 27.207 155.314 29.8597 159.665 29.8184L177.327 29.6288C177.327 29.6288 182.288 18.3953 175.122 12.6257Z" fill="#3465EA"/>
<path d="M85.3503 6.19282H90.3661V11.4203C90.3661 11.4203 90.8779 18.5536 82.2793 18.6062H51.8772C51.8772 18.6062 45.6842 18.4488 45.4283 21.5958C45.4283 21.5958 45.1723 23.6414 48.8574 24.6904C48.8574 24.6904 53.9757 25.1099 55.1529 25.0575L72.1964 25.0621L72.2477 29.8305H51.5701C51.5701 29.8305 40.7707 30.2501 40.6172 22.435C40.6172 22.435 39.3376 14.5674 49.8812 13.9905H81.1021C81.1021 13.9905 85.6062 14.7248 85.5038 9.00761L85.3503 6.19282Z" fill="#3465EA"/>
<path d="M81.0503 24.8343C81.0503 26.36 79.8434 27.5967 78.3547 27.5967C76.866 27.5967 75.6592 26.36 75.6592 24.8343C75.6592 23.3088 76.866 22.0719 78.3547 22.0719C79.8434 22.0719 81.0503 23.3088 81.0503 24.8343Z" fill="#3465EA"/>
<path d="M87.7046 24.8343C87.7046 26.36 86.4978 27.5967 85.009 27.5967C83.5203 27.5967 82.3135 26.36 82.3135 24.8343C82.3135 23.3088 83.5203 22.0719 85.009 22.0719C86.4978 22.0719 87.7046 23.3088 87.7046 24.8343Z" fill="#3465EA"/>
<path d="M169.142 2.76254C169.142 4.28821 167.935 5.5249 166.446 5.5249C164.957 5.5249 163.75 4.28821 163.75 2.76254C163.75 1.23686 164.957 0.000163555 166.446 0.000163555C167.935 0.000163555 169.142 1.23686 169.142 2.76254Z" fill="#3465EA"/>
<path d="M175.795 2.76254C175.795 4.28821 174.588 5.5249 173.099 5.5249C171.61 5.5249 170.404 4.28821 170.404 2.76254C170.404 1.23686 171.61 0.000163555 173.099 0.000163555C174.588 0.000163555 175.795 1.23686 175.795 2.76254Z" fill="#3465EA"/>
<path d="M84.5319 30.6068C84.5319 32.1324 83.325 33.3691 81.8363 33.3691C80.3475 33.3691 79.1406 32.1324 79.1406 30.6068C79.1406 29.0812 80.3475 27.8444 81.8363 27.8444C83.325 27.8444 84.5319 29.0812 84.5319 30.6068Z" fill="#3465EA"/>
<path d="M35.0892 19.7591L31.0287 6.61153C31.0287 6.61153 30.1756 3.04488 26.4222 4.5835L5.40353 11.6467L4.27751 11.9786C4.27751 11.9786 0.950667 13.1503 2.12788 16.0352L6.0177 27.9415L18.3014 66.1254L18.7108 67.3841C18.7108 67.3841 19.6321 70.3738 22.9078 69.115L35.6009 64.8666C35.6009 64.8666 36.906 64.2896 37.29 65.2075C37.29 65.2075 37.8785 66.2041 36.3431 66.6761L23.5476 71.0033C23.5476 71.0033 18.8388 73.1799 17.0474 68.5644L0.259714 16.5859C0.259714 16.5859 -1.40371 11.8129 3.68895 10.0295L25.3389 2.79142C25.3389 2.79142 30.6363 0.300018 32.5556 5.04675L36.9317 18.579L37.2643 19.7854C37.2643 19.7854 37.8018 20.9393 36.6502 21.2802C36.6502 21.2802 35.8475 21.5372 35.3962 20.4147L35.0892 19.7591Z" fill="#3465EA"/>
<path d="M31.9842 57.2946C31.1752 57.2946 30.517 57.9692 30.517 58.7982C30.517 59.6273 31.1752 60.302 31.9842 60.302C32.7932 60.302 33.4515 59.6273 33.4515 58.7982C33.4515 57.9692 32.7932 57.2946 31.9842 57.2946ZM31.9842 62.519C29.9823 62.519 28.3535 60.8498 28.3535 58.7982C28.3535 56.7467 29.9823 55.0775 31.9842 55.0775C33.9863 55.0775 35.6149 56.7467 35.6149 58.7982C35.6149 60.8498 33.9863 62.519 31.9842 62.519Z" fill="#3465EA"/>
<path d="M41.4189 32.9546H46.2122L46.3018 48.1913L56.3804 39.2714L61.908 39.3414L53.7892 47.4707L62.8635 62.8296H57.314L50.1198 50.3686L46.4042 53.8687V62.8296H41.4189V32.9546Z" fill="#3465EA"/>
<path d="M77.7525 55.4736C77.8656 56.9879 78.3472 58.0892 79.1965 58.7774C80.046 59.4657 81.2973 59.81 82.951 59.81C83.7436 59.81 84.4121 59.7239 84.9556 59.5518C85.4993 59.3797 85.9409 59.1506 86.2808 58.8635C86.6205 58.5769 86.8637 58.2385 87.0113 57.8483C87.1583 57.4584 87.2321 57.034 87.2321 56.575C87.2321 55.9328 86.9942 55.3305 86.5186 54.7681C86.043 54.2062 85.1706 53.799 83.9024 53.5463L80.7425 52.9612C79.4966 52.7322 78.3981 52.4338 77.4467 52.0664C76.4954 51.6997 75.697 51.2233 75.0514 50.6383C74.4058 50.0532 73.9131 49.3364 73.5733 48.4873C73.2336 47.6387 73.0638 46.6289 73.0638 45.4587C73.0638 44.2886 73.2957 43.2562 73.7603 42.3613C74.2242 41.4665 74.8698 40.7213 75.697 40.1245C76.5235 39.528 77.5147 39.0746 78.6699 38.7651C79.8251 38.4552 81.0934 38.3003 82.4753 38.3003C84.2421 38.3003 85.7143 38.5069 86.8923 38.9198C88.0698 39.3329 89.0212 39.878 89.7464 40.5545C90.471 41.2317 91.0089 42.0172 91.3603 42.912C91.7113 43.8068 91.9432 44.736 92.0568 45.6997L87.2661 46.319C87.0166 44.9657 86.5356 43.9907 85.822 43.3939C85.1085 42.7974 84.0267 42.4991 82.5773 42.4991C81.7161 42.4991 81.0084 42.5738 80.4537 42.7228C79.8984 42.8723 79.4514 43.0669 79.1115 43.3078C78.7718 43.5487 78.534 43.83 78.3981 44.1509C78.2622 44.4725 78.1942 44.8048 78.1942 45.149C78.1942 46.0669 78.449 46.7552 78.9587 47.214C79.4684 47.6732 80.3348 48.0286 81.558 48.2807L84.8877 48.9346C87.515 49.4628 89.4407 50.3172 90.6638 51.4986C91.887 52.6806 92.4986 54.3841 92.4986 56.6093C92.4986 57.688 92.2999 58.6801 91.904 59.5862C91.5073 60.4929 90.9186 61.2845 90.137 61.9609C89.3557 62.6378 88.3757 63.1654 87.1981 63.544C86.02 63.9225 84.6382 64.1118 83.0529 64.1118C79.7454 64.1118 77.2142 63.395 75.459 61.9609C73.7034 60.5273 72.7579 58.3645 72.6221 55.4736H77.7525Z" fill="#3465EA"/>
<path d="M97.053 43.5728L93.5693 43.5204V39.2718L97.3944 39.2019L97.3602 32.955H102.342L102.376 39.2019L108.049 39.2981L108.022 43.433L102.623 43.363L102.495 55.6889C102.547 57.3149 103.253 57.7752 103.733 58.2097C104.211 58.6448 104.831 58.8621 105.592 58.8621C105.986 58.8621 106.388 58.8397 106.796 58.7947C107.204 58.7496 107.606 58.6674 108.001 58.5471L108.783 62.4285C107.965 62.6985 107.17 62.8856 106.395 62.991C105.62 63.0958 104.88 63.1484 104.176 63.1484C101.753 63.1484 99.9572 62.534 98.7885 61.3035C97.619 60.0739 97.0347 58.0039 97.0347 55.0938L97.053 43.5728Z" fill="#3465EA"/>
<path d="M116.238 51.1779C116.238 52.7099 116.363 53.9337 116.615 54.8495C116.865 55.766 117.272 56.5092 117.834 57.0791C118.425 57.6201 119.024 57.9731 119.63 58.138C120.235 58.3037 120.849 58.3857 121.47 58.3857C122.15 58.3857 122.8 58.251 123.421 57.9802C124.042 57.7099 124.581 57.282 125.04 56.6966C125.497 56.1114 125.859 55.3527 126.125 54.4214C126.392 53.491 126.525 52.3646 126.525 51.0425C126.525 49.6614 126.398 48.5048 126.148 47.5736C125.896 46.6431 125.55 45.8844 125.106 45.2985C124.663 44.7132 124.137 44.2929 123.532 44.0373C122.926 43.782 122.282 43.6542 121.603 43.6542C120.834 43.6542 120.169 43.7596 119.607 43.97C119.046 44.1805 118.499 44.5105 117.967 44.9609C117.375 45.5314 116.939 46.2522 116.659 47.1231C116.378 47.9947 116.238 49.1056 116.238 50.4571V51.1779ZM110.839 39.1985L115.923 39.3034V42.5903C117.697 40.0457 120.302 38.5342 123.376 38.5342C126.598 38.5342 129.008 39.6422 130.605 41.8577C132.201 44.0738 132.999 47.1126 132.999 50.9751C132.999 52.832 132.769 54.5232 132.311 56.0502C131.853 57.5773 131.187 58.8875 130.316 59.9802C129.443 61.0736 128.387 61.9191 127.146 62.5177C125.904 63.1164 124.499 63.4161 122.933 63.4161C121.78 63.4161 120.635 63.2083 119.497 62.7929C118.358 62.3775 117.132 61.6348 116.128 60.3885L116.162 71.6479H110.975L110.839 39.1985Z" fill="#3465EA"/>
<path d="M149.302 51.7519L146.488 51.9354C145.192 51.9954 144.057 52.3567 143.263 52.5649C142.468 52.7736 141.835 53.2703 141.409 53.5832C140.982 53.8961 140.474 54.5122 140.327 54.9294C140.18 55.347 140.107 55.8086 140.107 56.3151C140.107 57.0904 140.456 57.8088 140.986 58.2558C141.515 58.7027 142.372 58.99 143.314 58.99C144.903 58.99 146.409 58.6338 147.409 57.8886C147.967 57.4715 148.42 56.7761 148.772 56.1349C149.126 55.4944 149.302 54.6975 149.302 53.7434V51.7519ZM149.928 59.9339C149.014 60.9773 147.569 61.954 146.436 62.6092C145.304 63.2642 143.578 63.498 141.785 63.498C140.754 63.498 139.776 63.3639 138.849 63.0956C137.923 62.8275 137.113 62.4105 136.422 61.8441C135.731 61.2782 135.178 60.5554 134.767 59.676C134.355 58.7973 134.149 57.7469 134.149 56.5245C134.149 54.9154 134.502 53.6044 135.209 52.5909C135.915 51.5781 136.842 50.7882 137.989 50.2217C139.136 49.656 140.351 49.1059 141.779 48.8671C143.205 48.6288 144.683 48.4551 146.155 48.395L149.694 48.1149V46.9526C149.694 45.5222 149.304 44.5388 148.526 44.0024C147.746 43.466 146.286 43.5167 145.227 43.5167C142.784 43.5167 140.981 44.1573 140.627 46.0347L135.662 45.3005C136.074 42.8572 136.753 41.2541 138.459 40.166C140.166 39.0784 142.46 38.5344 145.344 38.5344C147.109 38.5344 148.61 38.7508 149.846 39.1825C151.081 39.6148 152.074 40.233 152.825 41.0376C153.575 41.8423 154.222 43.152 154.56 44.2989C154.898 45.4464 155.068 46.735 155.068 48.1655L154.753 62.7362H149.994L149.928 59.9339Z" fill="#3465EA"/>
<path d="M157.907 66.1516C158.761 66.39 159.63 66.5097 160.515 66.5097C161.339 66.5097 162.002 66.3083 162.503 65.9055C163.004 65.5025 163.431 64.7932 163.785 63.779L164.492 61.8093L154.901 39.4711H160.86L166.962 56.3165L172.667 39.2664H178.228L169.928 63.5104C169.398 64.8534 168.896 66.0242 168.426 67.0245C167.954 68.024 167.416 68.86 166.813 69.5314C166.207 70.2029 165.486 70.7022 164.646 71.0311C163.808 71.3591 162.769 71.5234 161.53 71.5234C160.764 71.5234 160.006 71.471 159.255 71.3668C158.504 71.2619 157.715 71.0759 156.891 70.8073L157.907 66.1516Z" fill="#3465EA"/>
<path d="M70.126 62.9385H64.8818V46.8162H70.126V62.9385Z" fill="#3465EA"/>
<path d="M70.126 44.4326H64.8818V39.3869H70.126V44.4326Z" fill="#3465EA"/>
</svg>
