<svg width="18" height="23" viewBox="0 0 18 23" fill="none" xmlns="http://www.w3.org/2000/svg">
<path d="M7.33961 16.1697C6.57169 15.4018 6.57169 14.1592 7.33961 13.3913C8.10616 12.6248 9.35011 12.6248 10.1167 13.3913C10.8846 14.1592 10.8846 15.4018 10.1167 16.1697C10.0239 16.2625 9.92433 16.3443 9.81931 16.4139V17.4587C9.81931 18.0616 9.33102 18.5499 8.72813 18.5499C8.12524 18.5499 7.63695 18.0616 7.63695 17.4587V16.4139C7.53192 16.3443 7.43235 16.2625 7.3396 16.1697H7.33961Z" fill="#3CBBB1"/>
<path fill-rule="evenodd" clip-rule="evenodd" d="M8.72945 0C5.71643 0 3.27355 2.44289 3.27355 5.45591V7.63827C1.46627 7.63827 0 9.10454 0 10.9118V19.6413C0 21.4485 1.46627 22.9148 3.27355 22.9148H14.1854C15.9926 22.9148 17.4589 21.4485 17.4589 19.6413V10.9118C17.4589 9.10454 15.9926 7.63827 14.1854 7.63827V5.45591C14.1854 2.44289 11.7425 0 8.72945 0ZM12.003 7.63827V5.45591C12.003 3.64863 10.5367 2.18236 8.72945 2.18236C6.92218 2.18236 5.45591 3.64863 5.45591 5.45591V7.63827H12.003ZM2.18236 10.9118C2.18236 10.3089 2.67065 9.82064 3.27355 9.82064H14.1854C14.7883 9.82064 15.2765 10.3089 15.2765 10.9118V19.6413C15.2765 20.2442 14.7883 20.7325 14.1854 20.7325H3.27355C2.67065 20.7325 2.18236 20.2442 2.18236 19.6413V10.9118Z" fill="#3CBBB1"/>
</svg>
