<svg width="61" height="39" viewBox="0 0 61 39" fill="none" xmlns="http://www.w3.org/2000/svg">
<path d="M37.3687 34.3965C36.8123 34.991 35.3678 35.5285 30.3942 35.5285C25.3786 35.5285 23.9532 34.9911 23.3967 34.408L0 34.4042C0.0381129 35.3799 0.243919 36.7442 0.975677 37.5447C1.45208 38.063 2.07712 38.3069 2.91562 38.3069H57.8355C58.674 38.3069 59.318 38.063 59.7754 37.5447C60.5034 36.7481 60.7282 35.3723 60.7663 34.3966L37.3687 34.3965Z" fill="#9DD8EF"/>
<path d="M25.0357 32.876C25.0548 32.9142 25.0738 32.9523 25.0738 32.9942C25.5312 33.1505 26.8499 33.4325 30.3905 33.4325C33.893 33.4325 35.2117 33.1505 35.6691 32.9942C35.6882 32.9561 35.7072 32.918 35.7263 32.876C35.894 32.514 36.2675 32.3082 36.6677 32.3082H55.9451V3.14422C55.9451 1.8255 54.9008 0.762207 53.5821 0.762207L7.17987 0.766018C5.86114 0.766018 4.79785 1.82931 4.79785 3.14804V32.3003H24.1055C24.4981 32.3079 24.8716 32.5137 25.0355 32.8758L25.0357 32.876Z" fill="#9DD8EF"/>
<rect x="7.87695" y="4.13818" width="45.0129" height="24.7571" fill="#41B6E5"/>
</svg>
