<svg width="46" height="80" viewBox="0 0 46 80" fill="none" xmlns="http://www.w3.org/2000/svg">
<g clip-path="url(#clip0_762_790)">
<path fill-rule="evenodd" clip-rule="evenodd" d="M38.7586 79.4121H7.04491C3.50328 79.4121 0.62207 76.5309 0.62207 72.9893V6.56048C0.62207 3.0189 3.50328 0.137695 7.04491 0.137695H38.7588C42.3004 0.137695 45.1816 3.0189 45.1816 6.56048V72.9893C45.1814 76.5309 42.3002 79.4121 38.7586 79.4121ZM7.04491 1.78917C4.41402 1.78917 2.27365 3.92952 2.27365 6.56066V72.9895C2.27365 75.6204 4.414 77.761 7.04491 77.761H38.7588C41.3896 77.761 43.5302 75.6206 43.5302 72.9895V6.56035C43.5302 3.92946 41.3899 1.78885 38.7588 1.78885L7.04491 1.78917Z" fill="url(#paint0_linear_762_790)"/>
<path fill-rule="evenodd" clip-rule="evenodd" d="M44.3559 69.934H1.44789C0.99173 69.934 0.62207 69.5643 0.62207 69.1082C0.62207 68.6521 0.99173 68.2824 1.44789 68.2824H44.3559C44.812 68.2824 45.1817 68.6521 45.1817 69.1082C45.1817 69.5643 44.812 69.934 44.3559 69.934ZM44.3559 11.2678H1.44789C0.99173 11.2678 0.62207 10.8981 0.62207 10.442C0.62207 9.98587 0.99173 9.61621 1.44789 9.61621H44.3559C44.812 9.61621 45.1817 9.98587 45.1817 10.442C45.1817 10.8981 44.812 11.2678 44.3559 11.2678Z" fill="url(#paint1_linear_762_790)"/>
<path fill-rule="evenodd" clip-rule="evenodd" d="M22.9033 77.232C21.081 77.232 19.5986 75.7495 19.5986 73.9274C19.5986 72.1052 21.0811 70.6226 22.9033 70.6226C24.7256 70.6226 26.2081 72.1053 26.2081 73.9274C26.2081 75.7494 24.7256 77.232 22.9033 77.232ZM22.9033 72.2739C21.9917 72.2739 21.25 73.0156 21.25 73.9272C21.25 74.8388 21.9917 75.5805 22.9033 75.5805C23.8149 75.5805 24.5566 74.839 24.5566 73.9272C24.5566 73.0154 23.8147 72.2739 22.9033 72.2739Z" fill="url(#paint2_linear_762_790)"/>
<path fill-rule="evenodd" clip-rule="evenodd" d="M12.1526 74.7531H8.13142C7.67532 74.7531 7.30566 74.3835 7.30566 73.9273C7.30566 73.4712 7.67532 73.1016 8.13142 73.1016H12.1526C12.6087 73.1016 12.9783 73.4712 12.9783 73.9273C12.9783 74.3835 12.6087 74.7531 12.1526 74.7531Z" fill="url(#paint3_linear_762_790)"/>
<path fill-rule="evenodd" clip-rule="evenodd" d="M37.6731 74.7531H33.6519C33.1958 74.7531 32.8262 74.3835 32.8262 73.9273C32.8262 73.4712 33.1958 73.1016 33.6519 73.1016H37.6731C38.1292 73.1016 38.4988 73.4712 38.4988 73.9273C38.4988 74.3835 38.1292 74.7531 37.6731 74.7531Z" fill="url(#paint4_linear_762_790)"/>
<path fill-rule="evenodd" clip-rule="evenodd" d="M27.2488 7.8143H18.559C17.3946 7.8143 16.4473 6.86699 16.4473 5.70253C16.4473 4.53808 17.3946 3.59082 18.559 3.59082H27.2488C28.4132 3.59082 29.3606 4.53807 29.3606 5.70228C29.3606 6.86698 28.4134 7.8143 27.2488 7.8143ZM18.559 5.24235C18.3096 5.24235 18.0989 5.45309 18.0989 5.70254C18.0989 5.95198 18.3096 6.16297 18.559 6.16297H27.2488C27.4982 6.16297 27.7092 5.95223 27.7092 5.70278C27.7092 5.45333 27.4985 5.24259 27.2488 5.24259L18.559 5.24235Z" fill="url(#paint5_linear_762_790)"/>
</g>
<defs>
<linearGradient id="paint0_linear_762_790" x1="22.9018" y1="0.137695" x2="22.9018" y2="79.4121" gradientUnits="userSpaceOnUse">
<stop stop-color="#002FAD"/>
<stop offset="1" stop-color="#403DEC"/>
</linearGradient>
<linearGradient id="paint1_linear_762_790" x1="22.9019" y1="9.61621" x2="22.9019" y2="69.934" gradientUnits="userSpaceOnUse">
<stop stop-color="#002FAD"/>
<stop offset="1" stop-color="#403DEC"/>
</linearGradient>
<linearGradient id="paint2_linear_762_790" x1="22.9034" y1="70.6226" x2="22.9034" y2="77.232" gradientUnits="userSpaceOnUse">
<stop stop-color="#002FAD"/>
<stop offset="1" stop-color="#403DEC"/>
</linearGradient>
<linearGradient id="paint3_linear_762_790" x1="10.142" y1="73.1016" x2="10.142" y2="74.7531" gradientUnits="userSpaceOnUse">
<stop stop-color="#002FAD"/>
<stop offset="1" stop-color="#403DEC"/>
</linearGradient>
<linearGradient id="paint4_linear_762_790" x1="35.6625" y1="73.1016" x2="35.6625" y2="74.7531" gradientUnits="userSpaceOnUse">
<stop stop-color="#002FAD"/>
<stop offset="1" stop-color="#403DEC"/>
</linearGradient>
<linearGradient id="paint5_linear_762_790" x1="22.9039" y1="3.59082" x2="22.9039" y2="7.8143" gradientUnits="userSpaceOnUse">
<stop stop-color="#002FAD"/>
<stop offset="1" stop-color="#403DEC"/>
</linearGradient>
<clipPath id="clip0_762_790">
<rect width="44.6784" height="79.5493" fill="white" transform="translate(0.564453)"/>
</clipPath>
</defs>
</svg>
