<svg width="52" height="52" viewBox="0 0 52 52" fill="none" xmlns="http://www.w3.org/2000/svg">
<circle cx="26" cy="26" r="26" fill="#C6CCD2"/>
<path d="M31.5782 16.7325V17.9905L31.1588 18.4099L31.0875 18.4812C30.772 18.1676 30.3456 17.9913 29.9008 17.9905V17.5712C29.9008 17.5712 28.2233 17.5712 28.2233 15.8937C28.2233 15.8937 27.804 17.5712 26.5459 17.5712H23.1911V17.9905C22.7463 17.9913 22.3198 18.1676 22.0043 18.4812L21.933 18.4099L21.5137 17.9905V16.7325C21.5137 15.3978 22.0439 14.1178 22.9876 13.1741C23.9313 12.2304 25.2113 11.7002 26.5459 11.7002C27.8806 11.7002 29.1605 12.2304 30.1043 13.1741C31.048 14.1178 31.5782 15.3978 31.5782 16.7325Z" fill="#414952"/>
<path d="M26.5457 11.7002C26.2646 11.7019 25.984 11.7271 25.707 11.7757C26.8792 11.9729 27.9435 12.579 28.7112 13.4864C29.4789 14.3938 29.9003 15.5439 29.9006 16.7325V17.9905C30.3454 17.9913 30.7719 18.1676 31.0874 18.4812L31.1586 18.4099L31.578 17.9905V16.7325C31.578 15.3978 31.0478 14.1178 30.1041 13.1741C29.1604 12.2304 27.8804 11.7002 26.5457 11.7002Z" fill="#707789"/>
<path d="M23.1911 17.9907V21.3456C22.7462 21.3456 22.3196 21.1688 22.005 20.8543C21.6904 20.5397 21.5137 20.113 21.5137 19.6681C21.5137 19.2233 21.6904 18.7966 22.005 18.482C22.3196 18.1675 22.7462 17.9907 23.1911 17.9907Z" fill="#EB975D"/>
<path d="M31.0872 18.4814C31.322 18.716 31.482 19.015 31.5468 19.3405C31.6117 19.6661 31.5784 20.0036 31.4514 20.3102C31.3243 20.6169 31.1091 20.879 30.833 21.0633C30.5569 21.2476 30.2323 21.3458 29.9004 21.3456V17.9907C30.3452 17.9915 30.7717 18.1678 31.0872 18.4814Z" fill="#EB975D"/>
<path d="M29.9001 21.3452V21.7645C29.9002 22.6544 29.5473 23.508 28.9188 24.1381C28.708 24.3483 28.4696 24.5288 28.2101 24.6748C27.7001 24.9664 27.1224 25.1189 26.535 25.1171C25.9475 25.1153 25.3708 24.9592 24.8626 24.6646C24.3543 24.3699 23.9324 23.9469 23.6389 23.438C23.3455 22.9291 23.1908 22.352 23.1904 21.7645V17.571H26.5453C27.8033 17.571 28.2227 15.8936 28.2227 15.8936C28.2227 17.571 29.9001 17.571 29.9001 17.571V21.3452Z" fill="#FFDAAA"/>
<path d="M28.2227 15.8936C28.2227 15.8936 27.8033 17.571 26.5453 17.571H23.1904V19.2484H26.5453C27.8033 19.2484 28.2227 17.571 28.2227 17.571C28.2227 19.2484 29.9001 19.2484 29.9001 19.2484V17.571C29.9001 17.571 28.2227 17.571 28.2227 15.8936Z" fill="#FFB680"/>
<path d="M28.223 24.7V26.7967L26.5456 28.4742L24.8682 26.7967V24.7L24.8807 24.6748C25.3873 24.9661 25.9613 25.1193 26.5456 25.1193C27.1299 25.1193 27.7039 24.9661 28.2104 24.6748L28.223 24.7Z" fill="#FFB680"/>
<path d="M28.2104 24.6748C27.7039 24.9661 27.1299 25.1193 26.5456 25.1193C25.9613 25.1193 25.3873 24.9661 24.8807 24.6748L24.8682 24.7V25.958L24.8807 25.9329C25.3873 26.2241 25.9613 26.3774 26.5456 26.3774C27.1299 26.3774 27.7039 26.2241 28.2104 25.9329L28.223 25.958V24.7L28.2104 24.6748Z" fill="#EB975D"/>
<path d="M26.5458 28.4743L25.2878 29.7324L23.6104 28.0549V27.0611L24.8684 26.7969L26.5458 28.4743Z" fill="#A0968C"/>
<path d="M29.4814 27.0611V28.0549L27.804 29.7324L26.5459 28.4743L28.2233 26.7969L29.4814 27.0611Z" fill="#A0968C"/>
<path d="M33.6749 37.7001H26.5459V28.4743L27.804 29.7323L29.4814 28.0549V27.061L36.1911 28.4743V37.7001H33.6749Z" fill="#BC6829"/>
<path d="M19.4165 37.7001H16.9004V28.4743L23.6101 27.061V28.0549L25.2875 29.7323L26.5456 28.4743V37.7001H19.4165Z" fill="#BC6829"/>
<path d="M29.4814 27.061V28.0549L27.804 29.7323L26.5459 28.4743V30.1517L27.804 31.4097L29.4814 29.7323V28.7385L36.1911 30.1517V28.4743L29.4814 27.061Z" fill="#9E5015"/>
<path d="M25.2875 29.7323L23.6101 28.0549V27.061L16.9004 28.4743V30.1517L23.6101 28.7385V29.7323L25.2875 31.4097L26.5456 30.1517V28.4743L25.2875 29.7323Z" fill="#9E5015"/>
<path d="M29.9001 17.9903V17.571C29.9001 17.571 28.2227 17.571 28.2227 15.8936C28.2227 15.8936 27.8033 17.571 26.5453 17.571H23.1904V21.7645C23.1898 22.3524 23.3438 22.9301 23.637 23.4396C23.9302 23.9491 24.3523 24.3726 24.8609 24.6674C25.3695 24.9623 25.9466 25.1182 26.5345 25.1195C27.1224 25.1208 27.7002 24.9675 28.2101 24.6748C28.4696 24.5288 28.708 24.3483 28.9188 24.1381C29.5473 23.508 29.9002 22.6544 29.9001 21.7645V17.9903Z" stroke="black" stroke-width="0.83871" stroke-linejoin="round"/>
<path d="M31.1588 18.4099L31.5782 17.9905V16.7325C31.5782 15.3978 31.048 14.1178 30.1043 13.1741C29.1605 12.2304 27.8806 11.7002 26.5459 11.7002C25.2113 11.7002 23.9313 12.2304 22.9876 13.1741C22.0439 14.1178 21.5137 15.3978 21.5137 16.7325V17.9905L21.933 18.4099" stroke="black" stroke-width="0.83871" stroke-linejoin="round"/>
<path d="M29.9004 21.3456C30.3453 21.3456 30.7719 21.1688 31.0865 20.8543C31.4011 20.5397 31.5778 20.113 31.5778 19.6681C31.5778 19.2233 31.4011 18.7966 31.0865 18.482C30.7719 18.1675 30.3453 17.9907 29.9004 17.9907" stroke="black" stroke-width="0.83871" stroke-linejoin="round"/>
<path d="M23.1911 17.9907C22.7462 17.9907 22.3196 18.1675 22.005 18.482C21.6904 18.7966 21.5137 19.2233 21.5137 19.6681C21.5137 20.113 21.6904 20.5397 22.005 20.8543C22.3196 21.1688 22.7462 21.3456 23.1911 21.3456" stroke="black" stroke-width="0.83871" stroke-linejoin="round"/>
<path d="M24.8681 24.7002V26.797L23.6101 27.0612L16.9004 28.4744V37.7002H19.4165H26.5456H33.6746H36.1907V28.4744L29.481 27.0612L28.223 26.797V24.7002" stroke="black" stroke-width="0.83871" stroke-linejoin="round"/>
<path d="M24.8682 26.7969L26.5456 28.4743L28.223 26.7969" stroke="black" stroke-width="0.83871" stroke-linejoin="round"/>
<path d="M29.4813 26.7969V27.0611V28.0549L27.8039 29.7324L26.5458 28.4743L25.2878 29.7324L23.6104 28.0549V27.0611V26.7969" stroke="black" stroke-width="0.83871" stroke-linejoin="round"/>
<path d="M26.5459 28.4746V37.7004" stroke="black" stroke-width="0.83871" stroke-linejoin="round"/>
<path d="M19.417 37.7001V32.2485" stroke="black" stroke-width="0.83871" stroke-linejoin="round"/>
<path d="M33.6748 37.7001V32.2485" stroke="black" stroke-width="0.83871" stroke-linejoin="round"/>
<path d="M24.4492 31.4097H25.2879" stroke="black" stroke-width="0.83871" stroke-linejoin="round"/>
<path d="M24.4492 33.5068H25.2879" stroke="black" stroke-width="0.83871" stroke-linejoin="round"/>
<path d="M24.4492 35.6035H25.2879" stroke="black" stroke-width="0.83871" stroke-linejoin="round"/>
</svg>
