<svg width="40" height="37" viewBox="0 0 40 37" fill="none" xmlns="http://www.w3.org/2000/svg">
<path fill-rule="evenodd" clip-rule="evenodd" d="M31.4559 22.6927H29.2786V26.2155C29.2786 26.2917 29.2637 26.3673 29.2345 26.4377C29.2054 26.5082 29.1626 26.5723 29.1087 26.6262C29.0548 26.6802 28.9908 26.7229 28.9203 26.7521C28.8499 26.7813 28.7744 26.7964 28.6981 26.7964H25.1749V28.9741H28.6981C28.8521 28.9741 28.9997 29.0353 29.1086 29.1442C29.2174 29.253 29.2786 29.4007 29.2786 29.5546V33.0774H31.4559V29.5542C31.456 29.4778 31.4711 29.4022 31.5004 29.3317C31.5298 29.2612 31.5727 29.1971 31.6269 29.1433C31.681 29.0894 31.7452 29.0467 31.8158 29.0177C31.8865 28.9887 31.9622 28.9739 32.0385 28.9741H35.5579V26.7964H32.0385C31.9623 26.7964 31.8868 26.7813 31.8163 26.7521C31.7458 26.7229 31.6818 26.6802 31.6279 26.6262C31.574 26.5723 31.5313 26.5082 31.5021 26.4377C31.473 26.3673 31.458 26.2917 31.458 26.2155V22.6927H31.4559ZM36.8139 21.4385C38.305 22.9301 39.2327 24.8927 39.4391 26.9918C39.6454 29.0908 39.1175 31.1965 37.9454 32.9499C36.7732 34.7034 35.0294 35.9962 33.0109 36.608C30.9924 37.2198 28.8242 37.1128 26.8758 36.3053C24.9274 35.4977 23.3192 34.0395 22.3254 32.1792C21.3316 30.3188 21.0136 28.1714 21.4255 26.1029C21.8375 24.0343 22.954 22.1726 24.5847 20.835C26.2155 19.4974 28.2596 18.7666 30.3687 18.7671C31.566 18.7658 32.7518 19.0012 33.8579 19.4596C34.9639 19.9181 35.9685 20.5905 36.8139 21.4385ZM14.4256 25.5281C14.4256 25.3742 14.4867 25.2265 14.5956 25.1177C14.7045 25.0088 14.8521 24.9476 15.0061 24.9476C15.16 24.9476 15.3077 25.0088 15.4165 25.1177C15.5254 25.2265 15.5866 25.3742 15.5866 25.5281V27.4786C15.5866 27.6326 15.5254 27.7802 15.4165 27.8891C15.3077 27.9979 15.16 28.0591 15.0061 28.0591C14.8521 28.0591 14.7045 27.9979 14.5956 27.8891C14.4867 27.7802 14.4256 27.6326 14.4256 27.4786V25.5281ZM5.41601 34.1493H16.5253V19.1047H5.41601V34.1493ZM15.2138 6.34207V9.06089C15.2165 9.91473 15.5569 10.7328 16.1607 11.3366C16.7644 11.9404 17.5825 12.2808 18.4364 12.2834C19.2902 12.2808 20.1084 11.9404 20.7121 11.3366C21.3159 10.7328 21.6563 9.91473 21.6589 9.06089V6.34207H15.2138ZM7.60777 6.34207V9.06089C7.60777 9.91556 7.94729 10.7352 8.55163 11.3396C9.15598 11.9439 9.97565 12.2834 10.8303 12.2834C11.685 12.2834 12.5047 11.9439 13.109 11.3396C13.7134 10.7352 14.0529 9.91556 14.0529 9.06089V6.34207H7.60777ZM0 6.34207V9.06089H0.00212015C0.00502609 9.91467 0.345477 10.7326 0.949194 11.3364C1.55291 11.9401 2.37089 12.2805 3.22467 12.2834C4.07845 12.2805 4.89643 11.9401 5.50015 11.3364C6.10387 10.7326 6.44432 9.91467 6.44723 9.06089V6.34207H0ZM36.4483 5.18068L33.4565 0H3.41718L0.425716 5.18068H36.4483ZM30.4273 6.34207V9.06089C30.4299 9.91473 30.7703 10.7328 31.3741 11.3366C31.9779 11.9404 32.796 12.2808 33.6498 12.2834C34.5037 12.2808 35.3218 11.9404 35.9255 11.3366C36.5293 10.7328 36.8697 9.91473 36.8724 9.06089V6.34207H30.4273ZM29.2659 9.06089V6.34207H22.8208V9.06089C22.8208 9.91556 23.1603 10.7352 23.7646 11.3396C24.369 11.9439 25.1886 12.2834 26.0433 12.2834C26.898 12.2834 27.7177 11.9439 28.322 11.3396C28.9263 10.7352 29.2659 9.91556 29.2659 9.06089ZM7.02729 11.2348C7.41121 11.9042 7.96502 12.4604 8.63274 12.8472C9.30047 13.2339 10.0585 13.4376 10.8301 13.4376C11.6018 13.4376 12.3598 13.2339 13.0275 12.8472C13.6952 12.4604 14.249 11.9042 14.6329 11.2348C15.0176 11.9041 15.5714 12.4605 16.2389 12.8483C16.9064 13.2361 17.664 13.4417 18.436 13.4444C19.2079 13.4419 19.9656 13.2364 20.633 12.8486C21.3004 12.4607 21.8541 11.9042 22.2386 11.2348C22.4326 11.572 22.6703 11.8821 22.9454 12.1571C23.3512 12.5648 23.8336 12.8883 24.3648 13.109C24.896 13.3298 25.4655 13.4434 26.0408 13.4434C26.616 13.4434 27.1856 13.3298 27.7168 13.109C28.248 12.8883 28.7303 12.5648 29.1361 12.1571C29.4112 11.8821 29.6489 11.572 29.843 11.2348C30.2274 11.9042 30.7811 12.4607 31.4485 12.8486C32.116 13.2364 32.8736 13.4419 33.6456 13.4444C34.1273 13.4448 34.6058 13.365 35.0614 13.2082V18.7404C32.9838 17.6737 30.6048 17.3463 28.3163 17.8121C26.0278 18.2779 23.9661 19.5091 22.4708 21.303C20.9754 23.097 20.1355 25.3466 20.0894 27.6816C20.0432 30.0166 20.7936 32.2977 22.217 34.1493H17.6855V18.5237C17.6855 18.4475 17.6704 18.372 17.6413 18.3016C17.6121 18.2312 17.5693 18.1672 17.5154 18.1133C17.4615 18.0594 17.3975 18.0166 17.3271 17.9874C17.2567 17.9583 17.1812 17.9433 17.105 17.9433H4.8351C4.68115 17.9433 4.5335 18.0044 4.42464 18.1133C4.31578 18.2221 4.25462 18.3698 4.25462 18.5237V34.1493H1.80845V13.2082C2.26401 13.3649 2.74248 13.4448 3.22425 13.4444C3.99617 13.4419 4.75386 13.2364 5.42129 12.8486C6.08872 12.4607 6.64285 11.9042 7.02729 11.2348ZM28.6981 21.5313H32.0385C32.1925 21.5313 32.3401 21.5925 32.449 21.7013C32.5579 21.8102 32.619 21.9578 32.619 22.1118V25.635H36.1422C36.2962 25.635 36.4438 25.6961 36.5527 25.805C36.6615 25.9139 36.7227 26.0615 36.7227 26.2155V29.5542C36.7227 29.7082 36.6615 29.8558 36.5527 29.9647C36.4438 30.0735 36.2962 30.1347 36.1422 30.1347H32.6169V33.6579C32.6169 33.8115 32.556 33.9588 32.4476 34.0676C32.3392 34.1764 32.1921 34.2378 32.0385 34.2383H28.6981C28.6218 34.2384 28.5463 34.2234 28.4758 34.1943C28.4054 34.1651 28.3413 34.1224 28.2874 34.0685C28.2334 34.0146 28.1906 33.9506 28.1614 33.8801C28.1322 33.8097 28.1172 33.7341 28.1172 33.6579V30.1347H24.5944C24.4405 30.1347 24.2928 30.0735 24.184 29.9647C24.0751 29.8558 24.014 29.7082 24.014 29.5542V26.2155C24.014 26.0615 24.0751 25.9139 24.184 25.805C24.2928 25.6961 24.4405 25.635 24.5944 25.635H28.1172V22.1118C28.1172 22.0355 28.1322 21.96 28.1614 21.8896C28.1906 21.8191 28.2334 21.7551 28.2874 21.7012C28.3413 21.6473 28.4054 21.6045 28.4758 21.5754C28.5463 21.5462 28.6218 21.5313 28.6981 21.5313Z" fill="#41B6E5"/>
</svg>
