<svg width="77" height="72" viewBox="0 0 77 72" fill="none" xmlns="http://www.w3.org/2000/svg">
<path d="M76.1083 24.536L69.1033 18.3014C69.0763 18.2777 69.0374 18.2811 69.0104 18.2591C68.9732 18.2304 68.9546 18.1848 68.9124 18.1611L39.2347 1.0253C39.2178 1.01516 39.1992 1.02023 39.1823 1.01178C39.0218 0.9273 38.8461 0.868164 38.6518 0.868164C38.4575 0.868164 38.2817 0.9273 38.1212 1.01178C38.1043 1.02023 38.0841 1.01685 38.0689 1.0253L8.39117 18.1628C8.35062 18.1865 8.33035 18.2321 8.29318 18.2608C8.26445 18.2811 8.22728 18.2777 8.20025 18.3014L1.1952 24.536C0.914729 24.7843 0.771113 25.1544 0.809974 25.5261C0.847145 25.8995 1.06341 26.2306 1.38612 26.4199L7.80657 30.1268V53.4483C7.80657 53.8656 8.0296 54.2508 8.38948 54.4586L38.0655 71.5962C38.2463 71.7009 38.449 71.7533 38.6484 71.7533C38.8494 71.7533 39.0522 71.7009 39.2313 71.5962L68.9124 54.4586C69.2722 54.2508 69.4953 53.8656 69.4953 53.4483V30.1268L75.9157 26.4199C76.2401 26.2306 76.4564 25.8995 76.4919 25.5261C76.5324 25.1544 76.3888 24.7843 76.1083 24.536ZM37.4843 4.05642V31.3484C37.4843 31.9938 38.0063 32.5159 38.6518 32.5159C39.2972 32.5159 39.8193 31.9938 39.8193 31.3484V4.05642L65.9944 19.1732L38.6518 34.9624L11.3091 19.1732L37.4843 4.05642ZM9.12108 20.6043L36.6682 36.5135L31.5014 41.1126L9.55868 28.4355C9.55361 28.4322 9.54516 28.4339 9.5401 28.4305L3.9543 25.205L9.12108 20.6043ZM10.1433 31.4751L31.0638 43.5557C31.2463 43.6605 31.4473 43.7128 31.6467 43.7128C31.6737 43.7128 31.6991 43.701 31.7261 43.6993C31.7633 43.6976 31.7937 43.6858 31.8292 43.6807C32.0438 43.6469 32.2516 43.5692 32.4222 43.4172L37.4843 38.9144V68.5667L10.1433 52.7741V31.4751ZM67.1603 52.7741L39.8176 68.565V38.9127L44.8796 43.4155C45.0519 43.5692 45.2631 43.6469 45.4794 43.6807C45.5115 43.6858 45.5385 43.6959 45.5723 43.6976C45.6011 43.6993 45.6264 43.7128 45.6551 43.7128C45.8562 43.7128 46.0572 43.6605 46.238 43.5557L67.1586 31.4751V52.7741H67.1603ZM67.7634 28.4305C67.7584 28.4339 67.7499 28.4322 67.7449 28.4355L45.8021 41.1142L40.6353 36.5152L68.1825 20.606L73.3492 25.205L67.7634 28.4305Z" fill="#356736"/>
</svg>
